<svg width="27" height="24" viewBox="0 0 27 24" fill="none" xmlns="http://www.w3.org/2000/svg">
<path d="M0.964286 4.33929H26.0357C26.5683 4.33929 27 3.90759 27 3.375V0.964286C27 0.431699 26.5683 0 26.0357 0H0.964286C0.431699 0 0 0.431699 0 0.964286V3.375C0 3.90759 0.431699 4.33929 0.964286 4.33929ZM0.964286 13.9821H26.0357C26.5683 13.9821 27 13.5504 27 13.0179V10.6071C27 10.0746 26.5683 9.64286 26.0357 9.64286H0.964286C0.431699 9.64286 0 10.0746 0 10.6071V13.0179C0 13.5504 0.431699 13.9821 0.964286 13.9821ZM0.964286 23.625H26.0357C26.5683 23.625 27 23.1933 27 22.6607V20.25C27 19.7174 26.5683 19.2857 26.0357 19.2857H0.964286C0.431699 19.2857 0 19.7174 0 20.25V22.6607C0 23.1933 0.431699 23.625 0.964286 23.625Z" fill="currentColor"/>
</svg>
